<svg id="Layer_1" data-name="Layer 1" xmlns="http://www.w3.org/2000/svg" viewBox="0 0 1366 768"><defs><style>.cls-1{fill:#3c134a}</style></defs><path class="cls-1" d="M732.92 519.45s-10.25-7.66-15.47-7.51c-7.71.23-22.87 7.51-22.87 7.51z"/><path class="cls-1" d="M712.6 517.41c-1.82-.89-.43-30.77-.43-33.5.05-20.19.23-40.37.35-60.55a29.49 29.49 0 01.59-7c.74-3 2.67-6.2 5-6.48 2.92-.35 3.58 3.06 3.6 6.53q.3 51.42.64 102.85z"/><path class="cls-1" d="M721.23 453c.07-.47 4.9-1.67 5.53-2.18 1.93-1.59 1.6-1.63 2.09-4.12.59-3 0-6.16.61-9.15.46-2.45 1.56-11.2 5.64-10.53s2.78 13.92 2.36 16.93c-.63 4.37-.2 10.15-3.25 13.74-3.24 3.8-10.05 4.11-14.51 5.74.52-3.5 1.04-6.96 1.53-10.43zM714.71 470v-.06c-5-1.23-8.31-2.49-9.09-7.66-.53-3.55-.51-7.19-.83-10.76-.26-2.94-.67-14.71-6.34-12a3.66 3.66 0 00-1.64 1.94c-2 4.53-.11 10.42.56 15.05.64 4.47-.09 10.29 2.29 14.49 3 5.36 10.24 6 15.42 8.19-.08-3.08-.26-6.19-.37-9.19zM660.52 519.45c.89-.45.21-13.56.21-14.94 0-10.23-.11-20.45-.17-30.68a16 16 0 00-.29-3.54c-.36-1.51-1.3-3.14-2.46-3.28-1.43-.18-1.76 1.55-1.77 3.31-.09 17.36-.2 31.77-.31 49.13z"/><path class="cls-1" d="M656.3 488.84c0-.24-2.37-.84-2.69-1.11-2-1.68-1.67-5.06-1.51-7.43.23-3.3.72-6.73-.1-10a3 3 0 00-1-1.78c-2.31-1.56-2.18 4.73-2.31 5.82a38.62 38.62 0 00-.3 9.9c.3 2.22.09 5.15 1.58 7s4.91 2.08 7.09 2.91c-.26-1.79-.52-3.54-.76-5.31zM658.69 501.4c2.46-.62 4.06-1.26 4.44-3.88.41-2.82.43-5.75.57-8.59 0-.82-.23-1.55.49-2.14 1-.77 1.93-.16 2.21.9 1 3.83 1.61 10.66-.36 14.27-1.48 2.72-5 3-7.53 4.15.06-1.56.12-3.11.18-4.71z"/></svg>