<svg id="Layer_1" data-name="Layer 1" xmlns="http://www.w3.org/2000/svg" viewBox="0 0 441.42 340.58"><defs><style>.cls-1{fill:#c572d9;}</style></defs><rect class="cls-1" x="18.82" y="19.16" width="405" height="305"/><path class="cls-1" d="M18.82,16.29C12.21,20.32,2.6,14.57,4.26,0,17.45,1.31,22,11.11,18.82,16.29Z"/><path class="cls-1" d="M9,24.11c3.44-2,9.88.54,7.3,5.22-2,3.6-9.38,2.42-9.25-2.06A3.75,3.75,0,0,1,9,24.11Z"/><path class="cls-1" d="M33.24,8.6c1.59,3.68-1.81,9.74-6.11,6.58-3.32-2.43-1.2-9.62,3.23-8.91A3.73,3.73,0,0,1,33.24,8.6Z"/><path class="cls-1" d="M425.47,19c-4-6.6.43-14.29,15.95-15.18C441,18.92,430.66,22.15,425.47,19Z"/><path class="cls-1" d="M417.65,9.17c2.05,3.44-.53,9.89-5.21,7.31C406.47,13.19,414.11,3.21,417.65,9.17Z"/><path class="cls-1" d="M433.21,33.55c-4.28,2.09-9.22-3-6.24-7,3.15-4.29,9.28-.67,8.52,4.07A4,4,0,0,1,433.21,33.55Z"/><path class="cls-1" d="M424.83,325.41c6.39-4.35,14.3-.29,16,15.16C425.72,340.89,422,330.75,424.83,325.41Z"/><path class="cls-1" d="M434.28,317.11c-3.34,2.22-9.9,0-7.57-4.84C429.7,306.14,440.05,313.27,434.28,317.11Z"/><path class="cls-1" d="M410.72,333.88c-2.31-4.17,2.52-9.36,6.73-6.59,4.44,2.93,1.13,9.24-3.64,8.72A4,4,0,0,1,410.72,333.88Z"/><path class="cls-1" d="M17,324.14c3.55,6.87-1.45,14.23-17,14C1.52,323.13,12.05,320.65,17,324.14Z"/><path class="cls-1" d="M24.08,334.53c-1.79-3.58,1.25-9.83,5.73-6.92C35.53,331.32,27.19,340.73,24.08,334.53Z"/><path class="cls-1" d="M10.31,309.1c4.42-1.78,9,3.64,5.72,7.48-3.45,4.05-9.3,0-8.2-4.67A4,4,0,0,1,10.31,309.1Z"/></svg>