<?xml version="1.0" encoding="UTF-8" standalone="no"?>
<!DOCTYPE svg PUBLIC "-//W3C//DTD SVG 1.1//EN" "http://www.w3.org/Graphics/SVG/1.1/DTD/svg11.dtd">
<svg width="100%" height="100%" viewBox="0 0 90 110" version="1.1" xmlns="http://www.w3.org/2000/svg" xmlns:xlink="http://www.w3.org/1999/xlink" xml:space="preserve" xmlns:serif="http://www.serif.com/" style="fill-rule:evenodd;clip-rule:evenodd;stroke-linejoin:round;stroke-miterlimit:2;">
    <path d="M64.006,59.398C64.075,44.097 64.229,28.798 64.32,13.5C64.232,11.151 64.43,8.801 64.91,6.5C65.65,3.5 67.58,0.3 69.91,0.02C72.83,-0.33 73.49,3.08 73.51,6.55C73.58,18.606 73.652,30.663 73.726,42.717C75.101,42.154 78.075,41.353 78.56,40.96C80.49,39.37 80.16,39.33 80.65,36.84C81.24,33.84 80.65,30.68 81.26,27.69C81.72,25.24 82.82,16.49 86.9,17.16C90.98,17.83 89.68,31.08 89.26,34.09C88.63,38.46 89.06,44.24 86.01,47.83C83.284,51.028 78.057,51.754 73.788,52.875C73.892,69.677 73.999,86.482 74.11,103.29C79.134,105.416 84.72,109.59 84.72,109.59L46.38,109.59C46.38,109.59 55.827,105.053 63.598,103.03C63.145,94.366 63.97,76.153 63.97,74.05C63.97,72.11 63.972,70.17 63.976,68.23C59.274,66.716 53.93,65.503 51.46,61.09C49.08,56.89 49.81,51.07 49.17,46.6C48.5,42.02 46.61,36.13 48.61,31.6C48.906,30.778 49.488,30.089 50.25,29.66C55.92,26.95 56.33,38.72 56.59,41.66C56.91,45.23 56.89,48.87 57.42,52.42C58.061,56.67 60.412,58.278 64.006,59.398ZM7.733,78.767C7.771,72.87 7.807,66.866 7.84,60.46C7.85,58.7 8.18,57 9.61,57.15C10.77,57.29 11.71,58.92 12.07,60.43C12.291,61.597 12.388,62.783 12.36,63.97C12.413,72.949 12.504,81.92 12.525,90.897C13.827,90.33 14.668,89.465 14.93,87.66C15.34,84.84 15.36,81.91 15.5,79.07C15.5,78.25 15.27,77.52 15.99,76.93C16.99,76.16 17.92,76.77 18.2,77.83C19.2,81.66 19.81,88.49 17.84,92.1C16.765,94.075 14.615,94.764 12.55,95.433C12.654,98.618 13.118,109.187 12.32,109.59L7.53,109.59C7.588,100.507 7.645,92.232 7.7,83.92C5.609,83.341 3.015,82.926 1.77,81.38C0.28,79.53 0.49,76.6 0.19,74.38C-0.14,71.081 -0.039,67.753 0.49,64.48C0.62,63.39 0.49,57.1 2.8,58.68C3.331,59.138 3.685,59.768 3.8,60.46C4.62,63.73 4.13,67.16 3.9,70.46C3.74,72.83 3.41,76.21 5.41,77.89C5.651,78.093 7.055,78.484 7.733,78.767Z" style="fill:rgb(55,26,74);fill-rule:nonzero;"/>
</svg>
