<svg id="Layer_1" data-name="Layer 1" xmlns="http://www.w3.org/2000/svg" viewBox="0 0 1366 768"><defs><style>.cls-1{fill:#ffac00}.cls-2{fill:#ff7b00}</style></defs><g id="Title"><path class="cls-1" d="M600.06 316.79H570.9v32.19l-2.36 2.81 2.36 6.54v45.21h-13.89l-10.97-2.61-2.13 2.61h-5.85v-86.75H511.8l-3.07-4.6V290.2h61.06l2.97 1.12 2.95-1.12h24.35v26.59z"/><path class="cls-1" d="M647.61 327q-12.12-12.6-30.07-12.6a44 44 0 00-12.54 1.76l-6.24 4-2.74-.05a41.87 41.87 0 00-8.49 6.89q-12 12.6-12 35v40.2h27.35l2-2.56v-17.5h25.54v18.71l1.48 1.39h26.65l1.2-3v-29.61l-.85-6.19.24-6.55c-1.08-12.51-3.46-21.46-11.53-29.89zm-17.22 35h-3.31l-1.41 1.16-3.5-1.16h-17.32v-6.26q0-8.73 3.46-13.51a10.86 10.86 0 019.23-4.78 11.09 11.09 0 019.31 4.78q3.54 4.78 3.54 13.51zM661.92 350.29a43.06 43.06 0 018.47-18.77q11.33-14.81 31.54-17.76a43.69 43.69 0 0115.4.45l3.21 2.52 2.08-1.06a48 48 0 015.21 2.14l3.5 24q-1.89-.39-6.08-1.69a47.77 47.77 0 00-8.17-1.81 33.15 33.15 0 00-8.88.22q-8.48 1.23-12.87 7.62a19.51 19.51 0 00-3.23 14.38 24.18 24.18 0 00.89 3.86l-.32 4.48 2.77.5a18.9 18.9 0 003.78 4q5.94 4.71 14.58 3.45a36.54 36.54 0 007.31-1.82 41.71 41.71 0 005.09-2.16c1.14-.6 2.77-1.62 4.89-3l4.58 2.69 2.82 18.37a43.27 43.27 0 01-23.61 11.61q-20.05 2.93-35.23-8.09c-10.12-7.42-15.06-14.42-16.86-26.68z"/><path class="cls-1" d="M812.69 326.72a45.24 45.24 0 00-63.68 0l-.68 2.94-2.41.42a44.81 44.81 0 003.08 60.07 43.49 43.49 0 0031.8 13.1 48.67 48.67 0 007.92-.63l9.15-3.91 3.52-.27a46.06 46.06 0 0011.29-8.29 44.53 44.53 0 000-63.43zM791 375.07q-4.26 6.93-10.19 6.93-5.76 0-10-6.92t-4.28-16.64q0-9.72 4.28-16.64t10-6.92q5.94 0 10.22 6.92a26.57 26.57 0 011.87 3.64l2.43 3-.81 2.16a36.94 36.94 0 01.79 7.84 31 31 0 01-4.31 16.63z"/><path class="cls-2" d="M553.95 424.02h-17.27v53.06h-3.35l-1.66-.71-2.22.71h-10.13V434.8l.49-1-.49-4.1v-5.68h-17.36v-10.94l1.89-1.06h50.1v3.72l-.77 2.66.77 1.22v4.4zM609.27 450a35.28 35.28 0 01-2.06 12.53 24.7 24.7 0 01-40.67 8.2q-7.11-7.45-7.12-20.73v-38h14.82l2.55 1.94v39.71c0 3.45.68 6.11 2 8a6.45 6.45 0 005.47 2.83l5.23-.32.28-2.51c1.39-1.89 2.09-4.55 2.09-8V412h9.16l3.44.5 2-.5h2.78zM615.52 477.08V465.4l.73-1.56-.73-3.54v-48.28h3.72l1.66 1.06 1.44-1.06h32.2v12h-21.65v11.9h20.05l1.6 1.32v10.58h-21.65v17.36h10.63l1.44.44 2.66-.44h6.92v11.9h-39.02zM701.66 457.86a18 18 0 01-7 14.68 25 25 0 01-16.15 5.61q-11.12 0-20.09-8.78l1.12-6.78 1.22-.58-.81-1.92.62-3.69q9.75 7.71 18.43 7.71a5.58 5.58 0 003.56-1.52 4.69 4.69 0 001.8-3.75q0-2.34-2.73-4.19a40.19 40.19 0 00-6.68-3.57c-.9-.38-1.8-.8-2.7-1.23l-3.6-2.88-1.6.12a19.63 19.63 0 01-6.68-6.59 18.48 18.48 0 01-2.73-10.14q0-8.19 6.83-13.8c1.87-1.54 12.28-5.61 15.8-5.61q11 0 20.09 9.56l-4.58 8.62s-2.6 1-3.3.45a25.34 25.34 0 00-4.21-2.64 18.75 18.75 0 00-4.54-1.7 22.88 22.88 0 00-3.56-.25 5.39 5.39 0 00-3.71 1.52 4.31 4.31 0 00-1.65 3.17 4.8 4.8 0 002 3.65 17.33 17.33 0 005 2.88 63 63 0 016.44 3 59 59 0 016.44 4 16.84 16.84 0 015 5.95 18.42 18.42 0 011.97 8.7zM747.17 421.53q-8.53-9.53-20.73-9.53h-8.29l-1 1.11-2-1.11h-10.36v62.8l1.55 2.26h20.1q12.09 0 20.68-9.51a34 34 0 004.22-5.78l1.31-4.85 1.24-.8a35.74 35.74 0 001.81-11.54 33.31 33.31 0 00-8.53-23.05zM733.51 459q-3.75 6-9.12 6h-2.24v-39.65l2.24-1.33q5.37 0 9.12 6.05a26.93 26.93 0 013.76 14.53 26.53 26.53 0 01-3.76 14.4zM801.51 418.41a24.92 24.92 0 00-35.56 0q-7.11 7.45-7.12 20.73v37.94h17.37v-19l1.8-1.58h13.28v19l2.58 1.6h14.78v-31.3l-.93-2.44.93-2v-2.2q.03-13.29-7.13-20.75zm-10.2 26.19h-1.53l-1.22.73-2-.73H776.2v-9.17c0-3.45.68-6.11 2-8a6.45 6.45 0 015.47-2.83 6.57 6.57 0 015.51 2.83c1.39 1.89 2.09 4.55 2.09 8zM864.65 412.02l-10.39 18.72-1.96 1.96-1.05 3.46-8.25 14.88v26.04h-3.22l-1.33-1.04-2.44 1.04h-10.38v-26.04l-20.83-37.55 1.39-1.47h16.71l11.42 22.34 4.73-9.35 1.95-2.4.24-1.93 4.39-8.66h19.02z"/></g></svg>