<svg id="Layer_1" data-name="Layer 1" xmlns="http://www.w3.org/2000/svg" viewBox="0 0 1366 768"><defs><style>.cls-1{fill:#3c134a}.cls-2{fill:#ffac00}.cls-3{fill:#66277b}</style></defs><path class="cls-1" d="M933.3 402.13c-34.56-3.56-129.37-12.8-168.18-11.45-25.66.89-132.18 4.4-218.87 7-5.41.16-10.73-3-16-2.85-7.71.23-15.2 3.77-22.38 4-34.89 1-62.74 3.23-74.61 3.33M703.3 299.35l-7.38 88.59 36.65-.39s5.42-12.66 15.54-12.66 12.17 12.76 12.17 12.76c17.34-2 38.44-1.31 62.06 1.17 0 0 3.53-12.48 9.46-12.46s4.55 12.09 4.55 12.09l3.17-3.15-.13-21.19-4.39-5.64-3.64-32.47c-13.87-4.8-85.17-18.64-128.06-26.65z"/><path class="cls-2" d="M817.9 339.12a164.91 164.91 0 01-1.41 16.88l8.85 1.18a73.57 73.57 0 001.39-16.77zM829.91 340.47a74.07 74.07 0 01-1.3 17.21l6.43.79-1.73-17.37z"/><path class="cls-1" d="M746.25 372.69s9.3 1.58 8.82 12.78-9.93 12.3-9.93 12.3l-9.79-.6c-5-3.9-7.53-8.7-7-14.63zM826 373.18s8 1.36 7.62 11.05-8.59 10.63-8.59 10.63l-8.46-.51c-4.32-3.38-6.52-7.53-6-12.66zM703.3 299.35c-9.17 3-15.13 5.73-19 8.28l-5.73 74.06c-.58.58 16.44 7 17.4 6.25.36-.32 7.33-88.59 7.33-88.59z"/><path class="cls-1" d="M675.23 331.53l-.2 5.2s-4.27.38-4.74 3.43-.67 18-.67 18c5.4 2.63 10.46 3.07 15.19 1.37l2.07-19-4-2.85.71-5.47z"/><path class="cls-3" d="M813.34 326.23l-14.27 20.14.2-3.12 12.02-17.12 2.05.1z"/><path class="cls-2" d="M739.63 318.25l60.76 11c.51 0-1.95 26.88-2 25.53 0-1.5-60.49-6.35-60.38-6.06.46 1.28 2.64-30.11 1.62-30.47z"/><path class="cls-3" d="M739.63 318.25l13.23-2.87 60.48 10.85-12.95 3.03-60.76-11.01z"/><path class="cls-1" d="M752.86 315.38l-19.29 27.99.36 2.85 21.95-30.75-3.02-.09zM904.62 400.49l-2.33-9.48 3 7.31.49-5.82.84 5.49 2.16-3.82-1.5 7.15-2.66-.83z"/></svg>