<?xml version="1.0" encoding="UTF-8" standalone="no"?>
<!DOCTYPE svg PUBLIC "-//W3C//DTD SVG 1.1//EN" "http://www.w3.org/Graphics/SVG/1.1/DTD/svg11.dtd">
<svg width="100%" height="100%" viewBox="0 0 500 103" version="1.1" xmlns="http://www.w3.org/2000/svg" xmlns:xlink="http://www.w3.org/1999/xlink" xml:space="preserve" xmlns:serif="http://www.serif.com/" style="fill-rule:evenodd;clip-rule:evenodd;stroke-linejoin:round;stroke-miterlimit:2;">
    <path d="M272.031,0.379C315.111,8.431 384.418,21.975 398.2,26.7L401.8,59.2L406.2,64.8L406.3,86L403.1,89.1C403.1,89.1 404.6,77 398.6,77C398.404,77 398.21,77.013 398.02,77.039C399.393,78.692 400.452,81.155 400.3,84.8C400.104,89.509 398.031,92.149 395.969,93.616C422.271,95.42 450.324,97.918 472.35,100.035C483.417,101.098 492.963,102.066 500,102.8L-0,102.7C11.9,102.6 39.7,100.4 74.6,99.4C81.8,99.2 89.3,95.6 97,95.4C102.3,95.3 107.6,98.5 113,98.3C177.141,96.377 252.118,93.96 297.205,92.469C296.399,91.141 295.811,89.733 295.452,88.242L262.701,88.599L262.7,88.6C261.7,89.4 244.7,83 245.3,82.4L246.934,61.161C243.581,61.36 240.06,60.562 236.4,58.8C236.4,58.8 236.7,43.8 237.1,40.8C237.5,37.8 241.8,37.4 241.8,37.4L242,32.2L249.122,32.709L251,8.3C254.9,5.7 260.8,3 270,0L272.031,0.379ZM318.228,76.051C320.246,77.93 322.026,81.032 321.8,86.1C321.7,88.344 321.242,90.183 320.575,91.688C325.241,91.53 329.063,91.399 331.9,91.3C343.947,90.896 361.394,91.505 380.758,92.644C379.577,91.348 378.667,89.956 378.054,88.452C358.819,86.846 341.563,86.616 327,88.3C327,88.3 325.393,78.504 318.228,76.051Z" style="fill:rgb(60,19,74);fill-rule:nonzero;"/>
    <path d="M306.4,18.9L367.2,29.9C367.7,29.9 365.2,56.8 365.2,55.4C365.2,53.9 304.7,49 304.8,49.3C305.2,50.6 307.4,19.3 306.4,18.9Z" style="fill:rgb(255,172,0);fill-rule:nonzero;"/>
    <path d="M380.1,26.9L365.8,47L366,43.9L377.51,27.498L367.1,29.9L306.4,18.9L319.6,16L380.1,26.9Z" style="fill:rgb(102,39,123);fill-rule:nonzero;"/>
    <path d="M319.6,16L300.3,44L300.7,46.9L322.7,16.1L319.6,16ZM471.4,101.1L469.1,91.6L472.1,98.9L472.6,93.1L473.4,98.6L475.6,94.8L474,102L471.4,101.1Z" style="fill:rgb(60,19,74);fill-rule:nonzero;"/>
    <g id="Isolation-Mode" serif:id="Isolation Mode" transform="matrix(1,0,0,1,382.134,38.8398)">
        <g transform="matrix(-0.924942,0.380109,0.380109,0.924942,11.1661,15.9682)">
            <path d="M3.88,-18.858C6.421,-13.312 8.991,-8.173 11.613,-3.749L3.88,0.702C0.728,-4.035 -1.826,-9.031 -3.786,-14.282L3.88,-18.858Z" style="fill:rgb(255,171,0);fill-rule:nonzero;"/>
        </g>
        <g transform="matrix(-0.961725,0.274016,0.274016,0.961725,18.6442,18.485)">
            <path d="M1.295,-18.186C2.747,-12.378 4.682,-6.939 7.257,-1.985L1.295,0.536L-1.807,-16.646L1.295,-18.186Z" style="fill:rgb(255,171,0);fill-rule:nonzero;"/>
        </g>
    </g>
</svg>
