<svg version="1.1" id="Layer_1" xmlns="http://www.w3.org/2000/svg" x="0" y="0" viewBox="0 0 500 102.8" xml:space="preserve"><style>.st0{fill:#3c134a}.st1{fill:#66277b}</style><path class="st0" d="M500 102.8C465.5 99.2 370.7 90 331.9 91.3c-25.7.9-132.2 4.4-218.9 7-5.4.2-10.7-3-16-2.9-7.7.2-15.2 3.8-22.4 4-34.9 1-62.7 3.2-74.6 3.3M270 0l-7.4 88.6 36.7-.4s5.4-12.7 15.5-12.7S327 88.3 327 88.3c17.3-2 38.4-1.3 62.1 1.2 0 0 3.5-12.5 9.5-12.5s4.5 12.1 4.5 12.1l3.2-3.1-.1-21.2-4.4-5.6-3.6-32.5C384.2 21.9 312.9 8 270 0z"/><path class="st0" d="M313 73.3s9.3 1.6 8.8 12.8-9.9 12.3-9.9 12.3l-9.8-.6c-5-3.9-7.5-8.7-7-14.6l17.9-9.9zm79.7.5s8 1.4 7.6 11-8.6 10.6-8.6 10.6l-8.5-.5c-4.3-3.4-6.5-7.5-6-12.7l15.5-8.4zM270 0c-9.2 3-15.1 5.7-19 8.3l-5.7 74.1c-.6.6 16.4 7 17.4 6.2.4-.3 7.3-88.6 7.3-88.6z"/><path class="st0" d="M242 32.2l-.2 5.2s-4.3.4-4.7 3.4-.7 18-.7 18c5.4 2.6 10.5 3.1 15.2 1.4l2.1-19-4-2.9.7-5.5-8.4-.6z"/><path class="st1" d="M380.1 26.9L365.8 47l.2-3.1 12-17.1 2.1.1z"/><path d="M306.4 18.9l60.8 11c.5 0-2 26.9-2 25.5 0-1.5-60.5-6.4-60.4-6.1.4 1.3 2.6-30 1.6-30.4z" fill="#ffac00"/><path class="st1" d="M306.4 18.9l13.2-2.9 60.5 10.9-13 3-60.7-11z"/><path class="st0" d="M319.6 16l-19.3 28 .4 2.9 22-30.8-3.1-.1zm151.8 85.1l-2.3-9.5 3 7.3.5-5.8.8 5.5 2.2-3.8-1.6 7.2-2.6-.9z"/></svg>