<?xml version="1.0" encoding="utf-8"?>
<!-- Generator: Adobe Illustrator 24.3.0, SVG Export Plug-In . SVG Version: 6.00 Build 0)  -->
<svg version="1.1" id="Layer_1" xmlns="http://www.w3.org/2000/svg" xmlns:xlink="http://www.w3.org/1999/xlink" x="0px" y="0px"
	 viewBox="0 0 500 102.8" style="enable-background:new 0 0 500 102.8;" xml:space="preserve">
<style type="text/css">
	.st0{fill:#3C134A;}
	.st1{fill:#66277B;}
	.st2{fill:#FFAC00;}
</style>
<path class="st0" d="M500,102.8C465.5,99.2,370.7,90,331.9,91.3c-25.7,0.9-132.2,4.4-218.9,7c-5.4,0.2-10.7-3-16-2.9
	c-7.7,0.2-15.2,3.8-22.4,4c-34.9,1-62.7,3.2-74.6,3.3 M270,0l-7.4,88.6l36.7-0.4c0,0,5.4-12.7,15.5-12.7S327,88.3,327,88.3
	c17.3-2,38.4-1.3,62.1,1.2c0,0,3.5-12.5,9.5-12.5s4.5,12.1,4.5,12.1l3.2-3.1l-0.1-21.2l-4.4-5.6l-3.6-32.5C384.2,21.9,312.9,8,270,0
	L270,0z"/>
<path class="st0" d="M313,73.3c0,0,9.3,1.6,8.8,12.8s-9.9,12.3-9.9,12.3l-9.8-0.6c-5-3.9-7.5-8.7-7-14.6L313,73.3z M392.7,73.8
	c0,0,8,1.4,7.6,11s-8.6,10.6-8.6,10.6l-8.5-0.5c-4.3-3.4-6.5-7.5-6-12.7L392.7,73.8z M270,0c-9.2,3-15.1,5.7-19,8.3l-5.7,74.1
	c-0.6,0.6,16.4,7,17.4,6.2C263.1,88.3,270,0,270,0L270,0z"/>
<path class="st0" d="M242,32.2l-0.2,5.2c0,0-4.3,0.4-4.7,3.4s-0.7,18-0.7,18c5.4,2.6,10.5,3.1,15.2,1.4l2.1-19l-4-2.9l0.7-5.5
	L242,32.2z"/>
<path class="st1" d="M380.1,26.9L365.8,47l0.2-3.1l12-17.1L380.1,26.9z"/>
<path class="st2" d="M306.4,18.9l60.8,11c0.5,0-2,26.9-2,25.5c0-1.5-60.5-6.4-60.4-6.1C305.2,50.6,307.4,19.3,306.4,18.9z"/>
<path class="st1" d="M306.4,18.9l13.2-2.9l60.5,10.9l-13,3L306.4,18.9L306.4,18.9z"/>
<path class="st0" d="M319.6,16l-19.3,28l0.4,2.9l22-30.8L319.6,16z M471.4,101.1l-2.3-9.5l3,7.3l0.5-5.8l0.8,5.5l2.2-3.8L474,102
	L471.4,101.1L471.4,101.1z"/>
</svg>
